<svg width="862" height="540" viewBox="0 0 862 540" fill="none" xmlns="http://www.w3.org/2000/svg">
<rect x="62" y="65" width="756" height="459" stroke="black" stroke-width="2"/>
<rect x="62" y="65" width="232" height="65" stroke="black" stroke-width="2"/>
<rect x="296" y="65" width="188" height="65" stroke="black" stroke-width="2"/>
<rect x="399" y="459" width="419" height="65" stroke="black" stroke-width="2"/>
<rect x="501" y="392" width="317" height="65" stroke="black" stroke-width="2"/>
<rect x="62" y="459" width="105" height="65" stroke="black" stroke-width="2"/>
<rect x="169" y="459" width="228" height="65" stroke="black" stroke-width="2"/>
<rect x="676" y="65" width="142" height="65" stroke="black" stroke-width="2"/>
<rect x="62" y="132" width="105" height="65" stroke="black" stroke-width="2"/>
<rect x="486" y="65" width="188" height="65" stroke="black" stroke-width="2"/>
<path d="M321.707 164.707C322.098 164.317 322.098 163.683 321.707 163.293L315.343 156.929C314.953 156.538 314.319 156.538 313.929 156.929C313.538 157.319 313.538 157.953 313.929 158.343L319.586 164L313.929 169.657C313.538 170.047 313.538 170.681 313.929 171.071C314.319 171.462 314.953 171.462 315.343 171.071L321.707 164.707ZM168 165H170.013V163H168V165ZM174.039 165H178.066V163H174.039V165ZM182.092 165H186.118V163H182.092V165ZM190.145 165H194.171V163H190.145V165ZM198.197 165H202.224V163H198.197V165ZM206.25 165H210.276V163H206.25V165ZM214.303 165H218.329V163H214.303V165ZM222.355 165H226.382V163H222.355V165ZM230.408 165H234.434V163H230.408V165ZM238.461 165H242.487V163H238.461V165ZM246.513 165H250.539V163H246.513V165ZM254.566 165H258.592V163H254.566V165ZM262.618 165H266.645V163H262.618V165ZM270.671 165H274.697V163H270.671V165ZM278.724 165H282.75V163H278.724V165ZM286.776 165H290.803V163H286.776V165ZM294.829 165H298.855V163H294.829V165ZM302.882 165H306.908V163H302.882V165ZM310.934 165H314.961V163H310.934V165ZM318.987 165H321V163H318.987V165ZM322.414 165.414C323.195 164.633 323.195 163.367 322.414 162.586L309.686 149.858C308.905 149.077 307.639 149.077 306.858 149.858C306.077 150.639 306.077 151.905 306.858 152.686L318.172 164L306.858 175.314C306.077 176.095 306.077 177.361 306.858 178.142C307.639 178.923 308.905 178.923 309.686 178.142L322.414 165.414ZM168 166H170.013V162H168V166ZM174.039 166H178.066V162H174.039V166ZM182.092 166H186.118V162H182.092V166ZM190.145 166H194.171V162H190.145V166ZM198.197 166H202.224V162H198.197V166ZM206.25 166H210.276V162H206.25V166ZM214.303 166H218.329V162H214.303V166ZM222.355 166H226.382V162H222.355V166ZM230.408 166H234.434V162H230.408V166ZM238.461 166H242.487V162H238.461V166ZM246.513 166H250.539V162H246.513V166ZM254.566 166H258.592V162H254.566V166ZM262.618 166H266.645V162H262.618V166ZM270.671 166H274.697V162H270.671V166ZM278.724 166H282.75V162H278.724V166ZM286.776 166H290.803V162H286.776V166ZM294.829 166H298.855V162H294.829V166ZM302.882 166H306.908V162H302.882V166ZM310.934 166H314.961V162H310.934V166ZM318.987 166H321V162H318.987V166Z" fill="black"/>
<path d="M346.287 425.586C345.9 425.98 345.905 426.613 346.299 427L352.716 433.31C353.11 433.697 353.743 433.692 354.13 433.298C354.518 432.904 354.512 432.271 354.118 431.884L348.414 426.275L354.023 420.571C354.41 420.177 354.405 419.544 354.011 419.157C353.618 418.769 352.984 418.775 352.597 419.168L346.287 425.586ZM499.986 424L497.973 424.017L497.99 426.017L500.003 426L499.986 424ZM493.947 424.051L489.921 424.085L489.938 426.085L493.964 426.051L493.947 424.051ZM485.895 424.119L481.868 424.152L481.885 426.152L485.911 426.118L485.895 424.119ZM477.842 424.186L473.816 424.22L473.833 426.22L477.859 426.186L477.842 424.186ZM469.79 424.254L465.764 424.288L465.781 426.288L469.807 426.254L469.79 424.254ZM461.738 424.322L457.711 424.356L457.728 426.356L461.754 426.322L461.738 424.322ZM453.685 424.389L449.659 424.423L449.676 426.423L453.702 426.389L453.685 424.389ZM445.633 424.457L441.607 424.491L441.624 426.491L445.65 426.457L445.633 424.457ZM437.581 424.525L433.554 424.559L433.571 426.559L437.597 426.525L437.581 424.525ZM429.528 424.593L425.502 424.627L425.519 426.626L429.545 426.593L429.528 424.593ZM421.476 424.66L417.45 424.694L417.466 426.694L421.493 426.66L421.476 424.66ZM413.423 424.728L409.397 424.762L409.414 426.762L413.44 426.728L413.423 424.728ZM405.371 424.796L401.345 424.83L401.362 426.83L405.388 426.796L405.371 424.796ZM397.319 424.864L393.293 424.897L393.309 426.897L397.336 426.864L397.319 424.864ZM389.266 424.931L385.24 424.965L385.257 426.965L389.283 426.931L389.266 424.931ZM381.214 424.999L377.188 425.033L377.205 427.033L381.231 426.999L381.214 424.999ZM373.162 425.067L369.136 425.101L369.152 427.101L373.179 427.067L373.162 425.067ZM365.109 425.135L361.083 425.168L361.1 427.168L365.126 427.134L365.109 425.135ZM357.057 425.202L353.031 425.236L353.048 427.236L357.074 427.202L357.057 425.202ZM349.005 425.27L346.992 425.287L347.008 427.287L349.022 427.27L349.005 425.27ZM345.574 424.885C344.799 425.672 344.81 426.938 345.598 427.713L358.432 440.333C359.22 441.108 360.486 441.097 361.261 440.31C362.035 439.522 362.024 438.256 361.237 437.481L349.828 426.263L361.046 414.855C361.821 414.067 361.81 412.801 361.023 412.026C360.235 411.252 358.969 411.262 358.194 412.05L345.574 424.885ZM499.978 423L497.965 423.017L497.998 427.017L500.011 427L499.978 423ZM493.939 423.051L489.912 423.085L489.946 427.085L493.972 427.051L493.939 423.051ZM485.886 423.119L481.86 423.152L481.894 427.152L485.92 427.118L485.886 423.119ZM477.834 423.186L473.808 423.22L473.841 427.22L477.867 427.186L477.834 423.186ZM469.781 423.254L465.755 423.288L465.789 427.288L469.815 427.254L469.781 423.254ZM461.729 423.322L457.703 423.356L457.737 427.356L461.763 427.322L461.729 423.322ZM453.677 423.39L449.651 423.423L449.684 427.423L453.71 427.389L453.677 423.39ZM445.624 423.457L441.598 423.491L441.632 427.491L445.658 427.457L445.624 423.457ZM437.572 423.525L433.546 423.559L433.58 427.559L437.606 427.525L437.572 423.525ZM429.52 423.593L425.494 423.627L425.527 427.626L429.553 427.593L429.52 423.593ZM421.467 423.66L417.441 423.694L417.475 427.694L421.501 427.66L421.467 423.66ZM413.415 423.728L409.389 423.762L409.423 427.762L413.449 427.728L413.415 423.728ZM405.363 423.796L401.337 423.83L401.37 427.83L405.396 427.796L405.363 423.796ZM397.31 423.864L393.284 423.897L393.318 427.897L397.344 427.863L397.31 423.864ZM389.258 423.931L385.232 423.965L385.266 427.965L389.292 427.931L389.258 423.931ZM381.206 423.999L377.18 424.033L377.213 428.033L381.239 427.999L381.206 423.999ZM373.153 424.067L369.127 424.101L369.161 428.101L373.187 428.067L373.153 424.067ZM365.101 424.135L361.075 424.168L361.108 428.168L365.135 428.134L365.101 424.135ZM357.049 424.202L353.022 424.236L353.056 428.236L357.082 428.202L357.049 424.202ZM348.996 424.27L346.983 424.287L347.017 428.287L349.03 428.27L348.996 424.27Z" fill="black"/>
<path d="M575 270L575.155 269.012L575 270ZM627.306 384.72C627.704 385.103 628.337 385.091 628.72 384.694L634.963 378.211C635.346 377.813 635.334 377.18 634.936 376.797C634.539 376.414 633.906 376.426 633.522 376.823L627.973 382.586L622.211 377.037C621.813 376.654 621.18 376.666 620.797 377.064C620.414 377.461 620.426 378.094 620.823 378.478L627.306 384.72ZM124.001 200.035C124.75 221.507 125.562 236.675 128.026 247.304C130.504 257.996 134.703 264.298 142.334 267.785C149.818 271.204 160.48 271.843 175.632 271.734C190.877 271.625 210.739 270.75 236.99 271L237.01 269C210.761 268.75 190.748 269.625 175.618 269.734C160.395 269.844 150.182 269.171 143.166 265.965C136.297 262.827 132.371 257.191 129.974 246.852C127.563 236.45 126.75 221.493 125.999 199.965L124.001 200.035ZM236.99 271C289.508 271.5 361.286 269.5 426.267 268.375C491.312 267.249 549.453 267.005 574.845 270.988L575.155 269.012C549.547 264.995 491.188 265.251 426.233 266.375C361.214 267.5 289.492 269.5 237.01 269L236.99 271ZM574.845 270.988C594.645 274.094 607.554 293.238 615.605 316.477C623.627 339.633 626.668 366.422 627 384.019L629 383.981C628.665 366.245 625.606 339.234 617.495 315.823C609.413 292.496 596.155 272.306 575.155 269.012L574.845 270.988Z" fill="black"/>
<path d="M331.8 37.432C330.336 37.432 329.052 37.252 327.948 36.892C326.844 36.508 325.92 35.992 325.176 35.344C324.456 34.696 323.904 33.928 323.52 33.04C323.16 32.152 322.98 31.192 322.98 30.16C322.98 28.432 323.448 27.064 324.384 26.056C325.32 25.048 326.556 24.34 328.092 23.932V23.644C326.748 23.188 325.68 22.456 324.888 21.448C324.12 20.416 323.736 19.18 323.736 17.74C323.736 15.82 324.444 14.296 325.86 13.168C327.276 12.016 329.256 11.44 331.8 11.44C334.344 11.44 336.324 12.016 337.74 13.168C339.156 14.296 339.864 15.82 339.864 17.74C339.864 19.18 339.468 20.416 338.676 21.448C337.908 22.456 336.852 23.188 335.508 23.644V23.932C337.044 24.34 338.28 25.048 339.216 26.056C340.152 27.064 340.62 28.432 340.62 30.16C340.62 31.192 340.428 32.152 340.044 33.04C339.684 33.928 339.132 34.696 338.388 35.344C337.644 35.992 336.72 36.508 335.616 36.892C334.536 37.252 333.264 37.432 331.8 37.432ZM331.8 34.876C333.576 34.876 334.968 34.48 335.976 33.688C336.984 32.896 337.488 31.78 337.488 30.34V29.548C337.488 28.108 336.984 26.992 335.976 26.2C334.992 25.408 333.6 25.012 331.8 25.012C330 25.012 328.596 25.408 327.588 26.2C326.604 26.992 326.112 28.108 326.112 29.548V30.34C326.112 31.78 326.616 32.896 327.624 33.688C328.632 34.48 330.024 34.876 331.8 34.876ZM331.8 22.564C333.432 22.564 334.668 22.216 335.508 21.52C336.372 20.824 336.804 19.828 336.804 18.532V18.028C336.804 16.732 336.36 15.736 335.472 15.04C334.608 14.344 333.384 13.996 331.8 13.996C330.216 13.996 328.98 14.344 328.092 15.04C327.228 15.736 326.796 16.732 326.796 18.028V18.532C326.796 19.828 327.216 20.824 328.056 21.52C328.92 22.216 330.168 22.564 331.8 22.564ZM373.856 24.688L370.256 28.936V37H367.232V11.872H370.256V24.976H370.364L373.676 20.8L381.092 11.872H384.728L375.908 22.456L384.98 37H381.452L373.856 24.688ZM388.926 11.872H397.458C399.618 11.872 401.31 12.46 402.534 13.636C403.758 14.812 404.37 16.384 404.37 18.352C404.37 19.864 403.998 21.052 403.254 21.916C402.534 22.78 401.598 23.392 400.446 23.752V23.86C401.862 24.196 403.026 24.832 403.938 25.768C404.85 26.68 405.306 28.012 405.306 29.764C405.306 30.772 405.138 31.72 404.802 32.608C404.466 33.496 403.986 34.264 403.362 34.912C402.762 35.56 402.042 36.076 401.202 36.46C400.386 36.82 399.498 37 398.538 37H388.926V11.872ZM397.638 34.372C399.03 34.372 400.122 34.06 400.914 33.436C401.706 32.812 402.102 31.852 402.102 30.556V29.08C402.102 27.808 401.706 26.86 400.914 26.236C400.122 25.588 399.03 25.264 397.638 25.264H391.95V34.372H397.638ZM397.134 22.78C398.406 22.78 399.402 22.504 400.122 21.952C400.842 21.376 401.202 20.512 401.202 19.36V17.956C401.202 16.804 400.842 15.94 400.122 15.364C399.402 14.788 398.406 14.5 397.134 14.5H391.95V22.78H397.134ZM432.17 37V11.872H441.314C443.642 11.872 445.418 12.508 446.642 13.78C447.866 15.052 448.478 16.828 448.478 19.108C448.478 21.388 447.866 23.164 446.642 24.436C445.418 25.708 443.642 26.344 441.314 26.344H435.194V37H432.17ZM435.194 23.716H441.242C442.514 23.716 443.498 23.404 444.194 22.78C444.914 22.132 445.274 21.22 445.274 20.044V18.172C445.274 16.996 444.914 16.096 444.194 15.472C443.498 14.824 442.514 14.5 441.242 14.5H435.194V23.716ZM468.336 37C467.208 37 466.404 36.712 465.924 36.136C465.444 35.56 465.144 34.84 465.024 33.976H464.844C464.436 35.056 463.776 35.908 462.864 36.532C461.976 37.132 460.776 37.432 459.264 37.432C457.32 37.432 455.772 36.928 454.62 35.92C453.468 34.912 452.892 33.532 452.892 31.78C452.892 30.052 453.516 28.72 454.764 27.784C456.036 26.848 458.076 26.38 460.884 26.38H464.844V24.544C464.844 23.176 464.46 22.156 463.692 21.484C462.924 20.788 461.832 20.44 460.416 20.44C459.168 20.44 458.148 20.692 457.356 21.196C456.564 21.676 455.928 22.336 455.448 23.176L453.504 21.736C453.744 21.256 454.068 20.788 454.476 20.332C454.884 19.876 455.388 19.48 455.988 19.144C456.588 18.784 457.272 18.508 458.04 18.316C458.808 18.1 459.66 17.992 460.596 17.992C462.78 17.992 464.508 18.544 465.78 19.648C467.076 20.752 467.724 22.288 467.724 24.256V34.48H470.316V37H468.336ZM459.768 35.02C460.512 35.02 461.184 34.936 461.784 34.768C462.408 34.576 462.948 34.336 463.404 34.048C463.86 33.736 464.208 33.376 464.448 32.968C464.712 32.536 464.844 32.08 464.844 31.6V28.54H460.884C459.156 28.54 457.896 28.78 457.104 29.26C456.312 29.74 455.916 30.436 455.916 31.348V32.104C455.916 33.064 456.252 33.796 456.924 34.3C457.62 34.78 458.568 35.02 459.768 35.02ZM492.298 39.124C492.298 40.996 491.518 42.376 489.958 43.264C488.398 44.176 486.058 44.632 482.938 44.632C479.938 44.632 477.778 44.236 476.458 43.444C475.162 42.652 474.514 41.512 474.514 40.024C474.514 39.016 474.778 38.236 475.306 37.684C475.834 37.132 476.578 36.724 477.538 36.46V36.028C477.01 35.764 476.602 35.428 476.314 35.02C476.026 34.612 475.882 34.096 475.882 33.472C475.882 32.512 476.194 31.792 476.818 31.312C477.466 30.832 478.27 30.472 479.23 30.232V30.088C478.078 29.584 477.178 28.84 476.53 27.856C475.906 26.872 475.594 25.72 475.594 24.4C475.594 23.464 475.762 22.6 476.098 21.808C476.434 21.016 476.914 20.344 477.538 19.792C478.186 19.216 478.954 18.772 479.842 18.46C480.73 18.148 481.714 17.992 482.794 17.992C484.186 17.992 485.41 18.244 486.466 18.748V18.424C486.466 17.704 486.634 17.104 486.97 16.624C487.306 16.144 487.882 15.904 488.698 15.904H492.118V18.424H487.942V19.684C488.614 20.26 489.13 20.944 489.49 21.736C489.85 22.528 490.03 23.416 490.03 24.4C490.03 25.336 489.85 26.2 489.49 26.992C489.154 27.784 488.674 28.468 488.05 29.044C487.426 29.596 486.658 30.028 485.746 30.34C484.858 30.652 483.874 30.808 482.794 30.808C482.482 30.808 482.182 30.796 481.894 30.772C481.606 30.748 481.318 30.712 481.03 30.664C480.742 30.712 480.442 30.796 480.13 30.916C479.818 31.012 479.53 31.156 479.266 31.348C479.002 31.516 478.786 31.72 478.618 31.96C478.45 32.2 478.366 32.476 478.366 32.788C478.366 33.34 478.642 33.712 479.194 33.904C479.746 34.072 480.466 34.156 481.354 34.156H485.458C487.858 34.156 489.598 34.612 490.678 35.524C491.758 36.412 492.298 37.612 492.298 39.124ZM489.598 39.268C489.598 38.524 489.298 37.924 488.698 37.468C488.098 37.036 487.054 36.82 485.566 36.82H479.122C477.874 37.324 477.25 38.164 477.25 39.34C477.25 40.156 477.574 40.852 478.222 41.428C478.87 42.028 479.95 42.328 481.462 42.328H484.27C485.95 42.328 487.258 42.064 488.194 41.536C489.13 41.032 489.598 40.276 489.598 39.268ZM482.794 28.576C484.234 28.576 485.29 28.24 485.962 27.568C486.658 26.896 487.006 26.008 487.006 24.904V23.86C487.006 22.756 486.658 21.88 485.962 21.232C485.29 20.56 484.234 20.224 482.794 20.224C481.354 20.224 480.298 20.56 479.626 21.232C478.954 21.88 478.618 22.756 478.618 23.86V24.904C478.618 26.008 478.954 26.896 479.626 27.568C480.298 28.24 481.354 28.576 482.794 28.576ZM504.812 37.432C503.468 37.432 502.256 37.204 501.176 36.748C500.12 36.292 499.208 35.644 498.439 34.804C497.696 33.94 497.12 32.92 496.712 31.744C496.304 30.544 496.1 29.212 496.1 27.748C496.1 26.26 496.304 24.916 496.712 23.716C497.144 22.516 497.732 21.496 498.476 20.656C499.22 19.792 500.108 19.132 501.14 18.676C502.196 18.22 503.36 17.992 504.632 17.992C505.88 17.992 507.008 18.22 508.016 18.676C509.048 19.132 509.924 19.768 510.644 20.584C511.364 21.376 511.916 22.324 512.3 23.428C512.684 24.532 512.876 25.744 512.876 27.064V28.432H499.124V29.296C499.124 30.112 499.256 30.868 499.52 31.564C499.784 32.26 500.156 32.86 500.636 33.364C501.14 33.868 501.74 34.264 502.436 34.552C503.156 34.816 503.948 34.948 504.812 34.948C506.06 34.948 507.14 34.66 508.052 34.084C508.964 33.508 509.66 32.716 510.14 31.708L512.264 33.148C511.712 34.396 510.788 35.428 509.492 36.244C508.22 37.036 506.66 37.432 504.812 37.432ZM504.632 20.368C503.84 20.368 503.108 20.512 502.436 20.8C501.764 21.088 501.176 21.484 500.672 21.988C500.192 22.492 499.808 23.092 499.52 23.788C499.256 24.46 499.124 25.204 499.124 26.02V26.272H509.78V25.876C509.78 25.06 509.648 24.316 509.384 23.644C509.144 22.972 508.796 22.396 508.34 21.916C507.908 21.412 507.368 21.028 506.72 20.764C506.096 20.5 505.4 20.368 504.632 20.368Z" fill="black"/>
<path d="M100.16 107V90.248H106.256C107.808 90.248 108.992 90.672 109.808 91.52C110.624 92.368 111.032 93.552 111.032 95.072C111.032 96.592 110.624 97.776 109.808 98.624C108.992 99.472 107.808 99.896 106.256 99.896H102.176V107H100.16ZM102.176 98.144H106.208C107.056 98.144 107.712 97.936 108.176 97.52C108.656 97.088 108.896 96.48 108.896 95.696V94.448C108.896 93.664 108.656 93.064 108.176 92.648C107.712 92.216 107.056 92 106.208 92H102.176V98.144ZM124.271 107C123.519 107 122.983 106.808 122.663 106.424C122.343 106.04 122.143 105.56 122.063 104.984H121.943C121.671 105.704 121.231 106.272 120.623 106.688C120.031 107.088 119.231 107.288 118.223 107.288C116.927 107.288 115.895 106.952 115.127 106.28C114.359 105.608 113.975 104.688 113.975 103.52C113.975 102.368 114.391 101.48 115.223 100.856C116.071 100.232 117.431 99.92 119.303 99.92H121.943V98.696C121.943 97.784 121.687 97.104 121.175 96.656C120.663 96.192 119.935 95.96 118.991 95.96C118.159 95.96 117.479 96.128 116.951 96.464C116.423 96.784 115.999 97.224 115.679 97.784L114.383 96.824C114.543 96.504 114.759 96.192 115.031 95.888C115.303 95.584 115.639 95.32 116.039 95.096C116.439 94.856 116.895 94.672 117.407 94.544C117.919 94.4 118.487 94.328 119.111 94.328C120.567 94.328 121.719 94.696 122.567 95.432C123.431 96.168 123.863 97.192 123.863 98.504V105.32H125.591V107H124.271ZM118.559 105.68C119.055 105.68 119.503 105.624 119.903 105.512C120.319 105.384 120.679 105.224 120.983 105.032C121.287 104.824 121.519 104.584 121.679 104.312C121.855 104.024 121.943 103.72 121.943 103.4V101.36H119.303C118.151 101.36 117.311 101.52 116.783 101.84C116.255 102.16 115.991 102.624 115.991 103.232V103.736C115.991 104.376 116.215 104.864 116.663 105.2C117.127 105.52 117.759 105.68 118.559 105.68ZM140.245 108.416C140.245 109.664 139.725 110.584 138.685 111.176C137.645 111.784 136.085 112.088 134.005 112.088C132.005 112.088 130.565 111.824 129.685 111.296C128.821 110.768 128.389 110.008 128.389 109.016C128.389 108.344 128.565 107.824 128.917 107.456C129.269 107.088 129.765 106.816 130.405 106.64V106.352C130.053 106.176 129.781 105.952 129.589 105.68C129.397 105.408 129.301 105.064 129.301 104.648C129.301 104.008 129.509 103.528 129.925 103.208C130.357 102.888 130.893 102.648 131.533 102.488V102.392C130.765 102.056 130.165 101.56 129.733 100.904C129.317 100.248 129.109 99.48 129.109 98.6C129.109 97.976 129.221 97.4 129.445 96.872C129.669 96.344 129.989 95.896 130.405 95.528C130.837 95.144 131.349 94.848 131.941 94.64C132.533 94.432 133.189 94.328 133.909 94.328C134.837 94.328 135.653 94.496 136.357 94.832V94.616C136.357 94.136 136.469 93.736 136.693 93.416C136.917 93.096 137.301 92.936 137.845 92.936H140.125V94.616H137.341V95.456C137.789 95.84 138.133 96.296 138.373 96.824C138.613 97.352 138.733 97.944 138.733 98.6C138.733 99.224 138.613 99.8 138.373 100.328C138.149 100.856 137.829 101.312 137.413 101.696C136.997 102.064 136.485 102.352 135.877 102.56C135.285 102.768 134.629 102.872 133.909 102.872C133.701 102.872 133.501 102.864 133.309 102.848C133.117 102.832 132.925 102.808 132.733 102.776C132.541 102.808 132.341 102.864 132.133 102.944C131.925 103.008 131.733 103.104 131.557 103.232C131.381 103.344 131.237 103.48 131.125 103.64C131.013 103.8 130.957 103.984 130.957 104.192C130.957 104.56 131.141 104.808 131.509 104.936C131.877 105.048 132.357 105.104 132.949 105.104H135.685C137.285 105.104 138.445 105.408 139.165 106.016C139.885 106.608 140.245 107.408 140.245 108.416ZM138.445 108.512C138.445 108.016 138.245 107.616 137.845 107.312C137.445 107.024 136.749 106.88 135.757 106.88H131.461C130.629 107.216 130.213 107.776 130.213 108.56C130.213 109.104 130.429 109.568 130.861 109.952C131.293 110.352 132.013 110.552 133.021 110.552H134.893C136.013 110.552 136.885 110.376 137.509 110.024C138.133 109.688 138.445 109.184 138.445 108.512ZM133.909 101.384C134.869 101.384 135.573 101.16 136.021 100.712C136.485 100.264 136.717 99.672 136.717 98.936V98.24C136.717 97.504 136.485 96.92 136.021 96.488C135.573 96.04 134.869 95.816 133.909 95.816C132.949 95.816 132.245 96.04 131.797 96.488C131.349 96.92 131.125 97.504 131.125 98.24V98.936C131.125 99.672 131.349 100.264 131.797 100.712C132.245 101.16 132.949 101.384 133.909 101.384ZM148.588 107.288C147.692 107.288 146.884 107.136 146.164 106.832C145.46 106.528 144.852 106.096 144.34 105.536C143.844 104.96 143.46 104.28 143.188 103.496C142.916 102.696 142.78 101.808 142.78 100.832C142.78 99.84 142.916 98.944 143.188 98.144C143.476 97.344 143.868 96.664 144.364 96.104C144.86 95.528 145.452 95.088 146.14 94.784C146.844 94.48 147.62 94.328 148.468 94.328C149.3 94.328 150.052 94.48 150.724 94.784C151.412 95.088 151.996 95.512 152.476 96.056C152.956 96.584 153.324 97.216 153.58 97.952C153.836 98.688 153.964 99.496 153.964 100.376V101.288H144.796V101.864C144.796 102.408 144.884 102.912 145.06 103.376C145.236 103.84 145.484 104.24 145.804 104.576C146.14 104.912 146.54 105.176 147.004 105.368C147.484 105.544 148.012 105.632 148.588 105.632C149.42 105.632 150.14 105.44 150.748 105.056C151.356 104.672 151.82 104.144 152.14 103.472L153.556 104.432C153.188 105.264 152.572 105.952 151.708 106.496C150.86 107.024 149.82 107.288 148.588 107.288ZM148.468 95.912C147.94 95.912 147.452 96.008 147.004 96.2C146.556 96.392 146.164 96.656 145.828 96.992C145.508 97.328 145.252 97.728 145.06 98.192C144.884 98.64 144.796 99.136 144.796 99.68V99.848H151.9V99.584C151.9 99.04 151.812 98.544 151.636 98.096C151.476 97.648 151.244 97.264 150.94 96.944C150.652 96.608 150.292 96.352 149.86 96.176C149.444 96 148.98 95.912 148.468 95.912ZM172.305 89.24H174.225V96.632H174.321C174.449 96.328 174.609 96.04 174.801 95.768C174.993 95.48 175.225 95.232 175.497 95.024C175.785 94.816 176.121 94.648 176.505 94.52C176.889 94.392 177.337 94.328 177.849 94.328C179.145 94.328 180.185 94.744 180.969 95.576C181.753 96.392 182.145 97.552 182.145 99.056V107H180.225V99.392C180.225 98.256 179.977 97.416 179.481 96.872C178.985 96.312 178.257 96.032 177.297 96.032C176.913 96.032 176.537 96.08 176.169 96.176C175.801 96.272 175.473 96.416 175.185 96.608C174.897 96.8 174.665 97.048 174.489 97.352C174.313 97.656 174.225 98.008 174.225 98.408V107H172.305V89.24ZM191.76 107.288C190.864 107.288 190.056 107.136 189.336 106.832C188.632 106.528 188.024 106.096 187.512 105.536C187.016 104.96 186.632 104.28 186.36 103.496C186.088 102.696 185.952 101.808 185.952 100.832C185.952 99.84 186.088 98.944 186.36 98.144C186.648 97.344 187.04 96.664 187.536 96.104C188.032 95.528 188.624 95.088 189.312 94.784C190.016 94.48 190.792 94.328 191.64 94.328C192.472 94.328 193.224 94.48 193.896 94.784C194.584 95.088 195.168 95.512 195.648 96.056C196.128 96.584 196.496 97.216 196.752 97.952C197.008 98.688 197.136 99.496 197.136 100.376V101.288H187.968V101.864C187.968 102.408 188.056 102.912 188.232 103.376C188.408 103.84 188.656 104.24 188.976 104.576C189.312 104.912 189.712 105.176 190.176 105.368C190.656 105.544 191.184 105.632 191.76 105.632C192.592 105.632 193.312 105.44 193.92 105.056C194.528 104.672 194.992 104.144 195.312 103.472L196.728 104.432C196.36 105.264 195.744 105.952 194.88 106.496C194.032 107.024 192.992 107.288 191.76 107.288ZM191.64 95.912C191.112 95.912 190.624 96.008 190.176 96.2C189.728 96.392 189.336 96.656 189 96.992C188.68 97.328 188.424 97.728 188.232 98.192C188.056 98.64 187.968 99.136 187.968 99.68V99.848H195.072V99.584C195.072 99.04 194.984 98.544 194.808 98.096C194.648 97.648 194.416 97.264 194.112 96.944C193.824 96.608 193.464 96.352 193.032 96.176C192.616 96 192.152 95.912 191.64 95.912ZM210.614 107C209.862 107 209.326 106.808 209.006 106.424C208.686 106.04 208.486 105.56 208.406 104.984H208.286C208.014 105.704 207.574 106.272 206.966 106.688C206.374 107.088 205.574 107.288 204.566 107.288C203.27 107.288 202.238 106.952 201.47 106.28C200.702 105.608 200.318 104.688 200.318 103.52C200.318 102.368 200.734 101.48 201.566 100.856C202.414 100.232 203.774 99.92 205.646 99.92H208.286V98.696C208.286 97.784 208.03 97.104 207.518 96.656C207.006 96.192 206.278 95.96 205.334 95.96C204.502 95.96 203.822 96.128 203.294 96.464C202.766 96.784 202.342 97.224 202.022 97.784L200.726 96.824C200.886 96.504 201.102 96.192 201.374 95.888C201.646 95.584 201.982 95.32 202.382 95.096C202.782 94.856 203.238 94.672 203.75 94.544C204.262 94.4 204.83 94.328 205.454 94.328C206.91 94.328 208.062 94.696 208.91 95.432C209.774 96.168 210.206 97.192 210.206 98.504V105.32H211.934V107H210.614ZM204.902 105.68C205.398 105.68 205.846 105.624 206.246 105.512C206.662 105.384 207.022 105.224 207.326 105.032C207.63 104.824 207.862 104.584 208.022 104.312C208.198 104.024 208.286 103.72 208.286 103.4V101.36H205.646C204.494 101.36 203.654 101.52 203.126 101.84C202.598 102.16 202.334 102.624 202.334 103.232V103.736C202.334 104.376 202.558 104.864 203.006 105.2C203.47 105.52 204.102 105.68 204.902 105.68ZM223.325 104.984H223.229C222.429 106.52 221.157 107.288 219.413 107.288C217.893 107.288 216.701 106.72 215.837 105.584C214.989 104.448 214.565 102.856 214.565 100.808C214.565 98.76 214.989 97.168 215.837 96.032C216.701 94.896 217.893 94.328 219.413 94.328C221.157 94.328 222.429 95.096 223.229 96.632H223.325V89.24H225.245V107H223.325V104.984ZM220.157 105.584C220.589 105.584 220.997 105.528 221.381 105.416C221.765 105.304 222.101 105.144 222.389 104.936C222.677 104.712 222.901 104.448 223.061 104.144C223.237 103.824 223.325 103.456 223.325 103.04V98.576C223.325 98.16 223.237 97.8 223.061 97.496C222.901 97.176 222.677 96.912 222.389 96.704C222.101 96.48 221.765 96.312 221.381 96.2C220.997 96.088 220.589 96.032 220.157 96.032C219.037 96.032 218.165 96.376 217.541 97.064C216.933 97.736 216.629 98.632 216.629 99.752V101.864C216.629 102.984 216.933 103.888 217.541 104.576C218.165 105.248 219.037 105.584 220.157 105.584ZM234.932 107.288C234.036 107.288 233.228 107.136 232.508 106.832C231.804 106.528 231.196 106.096 230.684 105.536C230.188 104.96 229.804 104.28 229.532 103.496C229.26 102.696 229.124 101.808 229.124 100.832C229.124 99.84 229.26 98.944 229.532 98.144C229.82 97.344 230.212 96.664 230.708 96.104C231.204 95.528 231.796 95.088 232.484 94.784C233.188 94.48 233.964 94.328 234.812 94.328C235.644 94.328 236.396 94.48 237.068 94.784C237.756 95.088 238.34 95.512 238.82 96.056C239.3 96.584 239.668 97.216 239.924 97.952C240.18 98.688 240.308 99.496 240.308 100.376V101.288H231.14V101.864C231.14 102.408 231.228 102.912 231.404 103.376C231.58 103.84 231.828 104.24 232.148 104.576C232.484 104.912 232.884 105.176 233.348 105.368C233.828 105.544 234.356 105.632 234.932 105.632C235.764 105.632 236.484 105.44 237.092 105.056C237.7 104.672 238.164 104.144 238.484 103.472L239.9 104.432C239.532 105.264 238.916 105.952 238.052 106.496C237.204 107.024 236.164 107.288 234.932 107.288ZM234.812 95.912C234.284 95.912 233.796 96.008 233.348 96.2C232.9 96.392 232.508 96.656 232.172 96.992C231.852 97.328 231.596 97.728 231.404 98.192C231.228 98.64 231.14 99.136 231.14 99.68V99.848H238.244V99.584C238.244 99.04 238.156 98.544 237.98 98.096C237.82 97.648 237.588 97.264 237.284 96.944C236.996 96.608 236.636 96.352 236.204 96.176C235.788 96 235.324 95.912 234.812 95.912ZM243.754 105.368H247.378V96.248H243.754V94.616H249.298V97.736H249.418C249.674 96.76 250.154 96 250.858 95.456C251.578 94.896 252.49 94.616 253.594 94.616H255.322V96.536H252.994C251.89 96.536 250.994 96.856 250.306 97.496C249.634 98.136 249.298 98.976 249.298 100.016V105.368H254.098V107H243.754V105.368Z" fill="black"/>
<path d="M311.88 107V90.248H313.896V105.248H321.84V107H311.88ZM331.359 91.88C330.799 91.88 330.407 91.768 330.183 91.544C329.959 91.304 329.847 91.008 329.847 90.656V90.272C329.847 89.92 329.959 89.632 330.183 89.408C330.407 89.168 330.799 89.048 331.359 89.048C331.919 89.048 332.311 89.168 332.535 89.408C332.759 89.632 332.871 89.92 332.871 90.272V90.656C332.871 91.008 332.759 91.304 332.535 91.544C332.311 91.768 331.919 91.88 331.359 91.88ZM325.935 105.368H330.399V96.248H325.935V94.616H332.319V105.368H336.495V107H325.935V105.368ZM340.133 107V94.616H342.053V96.632H342.149C342.277 96.328 342.437 96.04 342.629 95.768C342.821 95.48 343.053 95.232 343.325 95.024C343.613 94.816 343.949 94.648 344.333 94.52C344.717 94.392 345.165 94.328 345.677 94.328C346.973 94.328 348.013 94.744 348.797 95.576C349.581 96.392 349.973 97.552 349.973 99.056V107H348.053V99.392C348.053 98.256 347.805 97.416 347.309 96.872C346.813 96.312 346.085 96.032 345.125 96.032C344.741 96.032 344.365 96.08 343.997 96.176C343.629 96.272 343.301 96.416 343.013 96.608C342.725 96.8 342.493 97.048 342.317 97.352C342.141 97.656 342.053 98.008 342.053 98.408V107H340.133ZM359.588 107.288C358.692 107.288 357.884 107.136 357.164 106.832C356.46 106.528 355.852 106.096 355.34 105.536C354.844 104.96 354.46 104.28 354.188 103.496C353.916 102.696 353.78 101.808 353.78 100.832C353.78 99.84 353.916 98.944 354.188 98.144C354.476 97.344 354.868 96.664 355.364 96.104C355.86 95.528 356.452 95.088 357.14 94.784C357.844 94.48 358.62 94.328 359.468 94.328C360.3 94.328 361.052 94.48 361.724 94.784C362.412 95.088 362.996 95.512 363.476 96.056C363.956 96.584 364.324 97.216 364.58 97.952C364.836 98.688 364.964 99.496 364.964 100.376V101.288H355.796V101.864C355.796 102.408 355.884 102.912 356.06 103.376C356.236 103.84 356.484 104.24 356.804 104.576C357.14 104.912 357.54 105.176 358.004 105.368C358.484 105.544 359.012 105.632 359.588 105.632C360.42 105.632 361.14 105.44 361.748 105.056C362.356 104.672 362.82 104.144 363.14 103.472L364.556 104.432C364.188 105.264 363.572 105.952 362.708 106.496C361.86 107.024 360.82 107.288 359.588 107.288ZM359.468 95.912C358.94 95.912 358.452 96.008 358.004 96.2C357.556 96.392 357.164 96.656 356.828 96.992C356.508 97.328 356.252 97.728 356.06 98.192C355.884 98.64 355.796 99.136 355.796 99.68V99.848H362.9V99.584C362.9 99.04 362.812 98.544 362.636 98.096C362.476 97.648 362.244 97.264 361.94 96.944C361.652 96.608 361.292 96.352 360.86 96.176C360.444 96 359.98 95.912 359.468 95.912ZM383.113 107V90.248H389.209C390.761 90.248 391.945 90.672 392.761 91.52C393.577 92.368 393.985 93.552 393.985 95.072C393.985 96.592 393.577 97.776 392.761 98.624C391.945 99.472 390.761 99.896 389.209 99.896H385.129V107H383.113ZM385.129 98.144H389.161C390.009 98.144 390.665 97.936 391.129 97.52C391.609 97.088 391.849 96.48 391.849 95.696V94.448C391.849 93.664 391.609 93.064 391.129 92.648C390.665 92.216 390.009 92 389.161 92H385.129V98.144ZM403.144 107C402.2 107 401.504 106.736 401.056 106.208C400.624 105.68 400.408 105 400.408 104.168V96.248H396.28V94.616H399.352C399.768 94.616 400.056 94.536 400.216 94.376C400.392 94.2 400.48 93.904 400.48 93.488V90.248H402.328V94.616H407.968V96.248H402.328V105.368H407.968V107H403.144ZM411.582 105.368H415.206V96.248H411.582V94.616H417.126V97.736H417.246C417.502 96.76 417.982 96 418.686 95.456C419.406 94.896 420.318 94.616 421.422 94.616H423.15V96.536H420.822C419.718 96.536 418.822 96.856 418.134 97.496C417.462 98.136 417.126 98.976 417.126 100.016V105.368H421.926V107H411.582V105.368ZM431.325 107.216C430.669 107.216 430.205 107.08 429.933 106.808C429.677 106.536 429.549 106.192 429.549 105.776V105.344C429.549 104.928 429.677 104.584 429.933 104.312C430.205 104.04 430.669 103.904 431.325 103.904C431.981 103.904 432.437 104.04 432.693 104.312C432.965 104.584 433.101 104.928 433.101 105.344V105.776C433.101 106.192 432.965 106.536 432.693 106.808C432.437 107.08 431.981 107.216 431.325 107.216ZM454.946 107V105.248H459.746V91.736H459.578L455.354 95.672L454.178 94.4L458.618 90.248H461.762V105.248H466.178V107H454.946Z" fill="black"/>
<path d="M691.88 107V90.248H693.896V105.248H701.84V107H691.88ZM711.359 91.88C710.799 91.88 710.407 91.768 710.183 91.544C709.959 91.304 709.847 91.008 709.847 90.656V90.272C709.847 89.92 709.959 89.632 710.183 89.408C710.407 89.168 710.799 89.048 711.359 89.048C711.919 89.048 712.311 89.168 712.535 89.408C712.759 89.632 712.871 89.92 712.871 90.272V90.656C712.871 91.008 712.759 91.304 712.535 91.544C712.311 91.768 711.919 91.88 711.359 91.88ZM705.935 105.368H710.399V96.248H705.935V94.616H712.319V105.368H716.495V107H705.935V105.368ZM720.133 107V94.616H722.053V96.632H722.149C722.277 96.328 722.437 96.04 722.629 95.768C722.821 95.48 723.053 95.232 723.325 95.024C723.613 94.816 723.949 94.648 724.333 94.52C724.717 94.392 725.165 94.328 725.677 94.328C726.973 94.328 728.013 94.744 728.797 95.576C729.581 96.392 729.973 97.552 729.973 99.056V107H728.053V99.392C728.053 98.256 727.805 97.416 727.309 96.872C726.813 96.312 726.085 96.032 725.125 96.032C724.741 96.032 724.365 96.08 723.997 96.176C723.629 96.272 723.301 96.416 723.013 96.608C722.725 96.8 722.493 97.048 722.317 97.352C722.141 97.656 722.053 98.008 722.053 98.408V107H720.133ZM739.588 107.288C738.692 107.288 737.884 107.136 737.164 106.832C736.46 106.528 735.852 106.096 735.34 105.536C734.844 104.96 734.46 104.28 734.188 103.496C733.916 102.696 733.78 101.808 733.78 100.832C733.78 99.84 733.916 98.944 734.188 98.144C734.476 97.344 734.868 96.664 735.364 96.104C735.86 95.528 736.452 95.088 737.14 94.784C737.844 94.48 738.62 94.328 739.468 94.328C740.3 94.328 741.052 94.48 741.724 94.784C742.412 95.088 742.996 95.512 743.476 96.056C743.956 96.584 744.324 97.216 744.58 97.952C744.836 98.688 744.964 99.496 744.964 100.376V101.288H735.796V101.864C735.796 102.408 735.884 102.912 736.06 103.376C736.236 103.84 736.484 104.24 736.804 104.576C737.14 104.912 737.54 105.176 738.004 105.368C738.484 105.544 739.012 105.632 739.588 105.632C740.42 105.632 741.14 105.44 741.748 105.056C742.356 104.672 742.82 104.144 743.14 103.472L744.556 104.432C744.188 105.264 743.572 105.952 742.708 106.496C741.86 107.024 740.82 107.288 739.588 107.288ZM739.468 95.912C738.94 95.912 738.452 96.008 738.004 96.2C737.556 96.392 737.164 96.656 736.828 96.992C736.508 97.328 736.252 97.728 736.06 98.192C735.884 98.64 735.796 99.136 735.796 99.68V99.848H742.9V99.584C742.9 99.04 742.812 98.544 742.636 98.096C742.476 97.648 742.244 97.264 741.94 96.944C741.652 96.608 741.292 96.352 740.86 96.176C740.444 96 739.98 95.912 739.468 95.912ZM763.113 107V90.248H769.209C770.761 90.248 771.945 90.672 772.761 91.52C773.577 92.368 773.985 93.552 773.985 95.072C773.985 96.592 773.577 97.776 772.761 98.624C771.945 99.472 770.761 99.896 769.209 99.896H765.129V107H763.113ZM765.129 98.144H769.161C770.009 98.144 770.665 97.936 771.129 97.52C771.609 97.088 771.849 96.48 771.849 95.696V94.448C771.849 93.664 771.609 93.064 771.129 92.648C770.665 92.216 770.009 92 769.161 92H765.129V98.144ZM783.144 107C782.2 107 781.504 106.736 781.056 106.208C780.624 105.68 780.408 105 780.408 104.168V96.248H776.28V94.616H779.352C779.768 94.616 780.056 94.536 780.216 94.376C780.392 94.2 780.48 93.904 780.48 93.488V90.248H782.328V94.616H787.968V96.248H782.328V105.368H787.968V107H783.144ZM791.582 105.368H795.206V96.248H791.582V94.616H797.126V97.736H797.246C797.502 96.76 797.982 96 798.686 95.456C799.406 94.896 800.318 94.616 801.422 94.616H803.15V96.536H800.822C799.718 96.536 798.822 96.856 798.134 97.496C797.462 98.136 797.126 98.976 797.126 100.016V105.368H801.926V107H791.582V105.368ZM811.325 107.216C810.669 107.216 810.205 107.08 809.933 106.808C809.677 106.536 809.549 106.192 809.549 105.776V105.344C809.549 104.928 809.677 104.584 809.933 104.312C810.205 104.04 810.669 103.904 811.325 103.904C811.981 103.904 812.437 104.04 812.693 104.312C812.965 104.584 813.101 104.928 813.101 105.344V105.776C813.101 106.192 812.965 106.536 812.693 106.808C812.437 107.08 811.981 107.216 811.325 107.216ZM839.386 97.352C840.554 97.352 841.426 97.096 842.002 96.584C842.594 96.056 842.89 95.384 842.89 94.568V94.4C842.89 93.504 842.602 92.832 842.026 92.384C841.466 91.936 840.73 91.712 839.818 91.712C838.922 91.712 838.194 91.912 837.634 92.312C837.09 92.696 836.642 93.208 836.29 93.848L834.778 92.696C834.986 92.36 835.242 92.032 835.546 91.712C835.85 91.376 836.202 91.08 836.602 90.824C837.018 90.568 837.49 90.36 838.018 90.2C838.562 90.04 839.178 89.96 839.866 89.96C840.586 89.96 841.258 90.056 841.882 90.248C842.506 90.424 843.05 90.696 843.514 91.064C843.978 91.416 844.338 91.856 844.594 92.384C844.866 92.912 845.002 93.512 845.002 94.184C845.002 94.728 844.914 95.216 844.738 95.648C844.578 96.08 844.346 96.456 844.042 96.776C843.754 97.096 843.41 97.368 843.01 97.592C842.61 97.816 842.186 97.984 841.738 98.096V98.192C842.202 98.288 842.65 98.448 843.082 98.672C843.514 98.88 843.898 99.16 844.234 99.512C844.57 99.848 844.834 100.264 845.026 100.76C845.234 101.24 845.338 101.792 845.338 102.416C845.338 103.136 845.194 103.8 844.906 104.408C844.634 105 844.242 105.512 843.73 105.944C843.234 106.36 842.626 106.688 841.906 106.928C841.202 107.168 840.418 107.288 839.554 107.288C838.818 107.288 838.162 107.208 837.586 107.048C837.026 106.888 836.522 106.672 836.074 106.4C835.642 106.128 835.258 105.824 834.922 105.488C834.602 105.152 834.314 104.8 834.058 104.432L835.57 103.28C835.794 103.616 836.026 103.92 836.266 104.192C836.506 104.464 836.778 104.704 837.082 104.912C837.402 105.104 837.762 105.256 838.162 105.368C838.562 105.48 839.026 105.536 839.554 105.536C840.738 105.536 841.642 105.264 842.266 104.72C842.906 104.176 843.226 103.4 843.226 102.392V102.2C843.226 101.208 842.914 100.44 842.29 99.896C841.682 99.352 840.762 99.08 839.53 99.08H837.538V97.352H839.386Z" fill="black"/>
<path d="M555.176 501H553.16V484.248H559.256C560.808 484.248 561.992 484.672 562.808 485.52C563.624 486.368 564.032 487.552 564.032 489.072C564.032 490.432 563.68 491.52 562.976 492.336C562.272 493.152 561.248 493.624 559.904 493.752L564.176 501H561.92L557.84 493.848H555.176V501ZM559.208 492.144C560.056 492.144 560.712 491.936 561.176 491.52C561.656 491.088 561.896 490.48 561.896 489.696V488.448C561.896 487.664 561.656 487.064 561.176 486.648C560.712 486.216 560.056 486 559.208 486H555.176V492.144H559.208ZM572.591 501.288C571.727 501.288 570.943 501.136 570.239 500.832C569.551 500.528 568.959 500.096 568.463 499.536C567.983 498.96 567.615 498.28 567.359 497.496C567.103 496.696 566.975 495.8 566.975 494.808C566.975 493.832 567.103 492.944 567.359 492.144C567.615 491.344 567.983 490.664 568.463 490.104C568.959 489.528 569.551 489.088 570.239 488.784C570.943 488.48 571.727 488.328 572.591 488.328C573.455 488.328 574.231 488.48 574.919 488.784C575.623 489.088 576.215 489.528 576.695 490.104C577.191 490.664 577.567 491.344 577.823 492.144C578.079 492.944 578.207 493.832 578.207 494.808C578.207 495.8 578.079 496.696 577.823 497.496C577.567 498.28 577.191 498.96 576.695 499.536C576.215 500.096 575.623 500.528 574.919 500.832C574.231 501.136 573.455 501.288 572.591 501.288ZM572.591 499.632C573.663 499.632 574.527 499.312 575.183 498.672C575.839 498.032 576.167 497.04 576.167 495.696V493.92C576.167 492.576 575.839 491.584 575.183 490.944C574.527 490.304 573.663 489.984 572.591 489.984C571.519 489.984 570.655 490.304 569.999 490.944C569.343 491.584 569.015 492.576 569.015 493.92V495.696C569.015 497.04 569.343 498.032 569.999 498.672C570.655 499.312 571.519 499.632 572.591 499.632ZM580.501 488.616H582.205L583.621 499.32H583.837L585.949 488.616H588.061L590.173 499.32H590.389L591.805 488.616H593.461L591.565 501H589.069L587.101 490.632H586.909L584.893 501H582.397L580.501 488.616ZM610.603 501V499.248H615.403V485.736H615.235L611.011 489.672L609.835 488.4L614.275 484.248H617.419V499.248H621.835V501H610.603Z" fill="black"/>
<path d="M46.176 501H44.16V484.248H50.256C51.808 484.248 52.992 484.672 53.808 485.52C54.624 486.368 55.032 487.552 55.032 489.072C55.032 490.432 54.68 491.52 53.976 492.336C53.272 493.152 52.248 493.624 50.904 493.752L55.176 501H52.92L48.84 493.848H46.176V501ZM50.208 492.144C51.056 492.144 51.712 491.936 52.176 491.52C52.656 491.088 52.896 490.48 52.896 489.696V488.448C52.896 487.664 52.656 487.064 52.176 486.648C51.712 486.216 51.056 486 50.208 486H46.176V492.144H50.208ZM63.5906 501.288C62.7266 501.288 61.9426 501.136 61.2386 500.832C60.5506 500.528 59.9586 500.096 59.4626 499.536C58.9826 498.96 58.6146 498.28 58.3586 497.496C58.1026 496.696 57.9746 495.8 57.9746 494.808C57.9746 493.832 58.1026 492.944 58.3586 492.144C58.6146 491.344 58.9826 490.664 59.4626 490.104C59.9586 489.528 60.5506 489.088 61.2386 488.784C61.9426 488.48 62.7266 488.328 63.5906 488.328C64.4546 488.328 65.2306 488.48 65.9186 488.784C66.6226 489.088 67.2146 489.528 67.6946 490.104C68.1906 490.664 68.5666 491.344 68.8226 492.144C69.0786 492.944 69.2066 493.832 69.2066 494.808C69.2066 495.8 69.0786 496.696 68.8226 497.496C68.5666 498.28 68.1906 498.96 67.6946 499.536C67.2146 500.096 66.6226 500.528 65.9186 500.832C65.2306 501.136 64.4546 501.288 63.5906 501.288ZM63.5906 499.632C64.6626 499.632 65.5266 499.312 66.1826 498.672C66.8386 498.032 67.1666 497.04 67.1666 495.696V493.92C67.1666 492.576 66.8386 491.584 66.1826 490.944C65.5266 490.304 64.6626 489.984 63.5906 489.984C62.5186 489.984 61.6546 490.304 60.9986 490.944C60.3426 491.584 60.0146 492.576 60.0146 493.92V495.696C60.0146 497.04 60.3426 498.032 60.9986 498.672C61.6546 499.312 62.5186 499.632 63.5906 499.632ZM71.5013 488.616H73.2053L74.6213 499.32H74.8373L76.9492 488.616H79.0613L81.1733 499.32H81.3893L82.8053 488.616H84.4613L82.5653 501H80.0693L78.1013 490.632H77.9093L75.8933 501H73.3973L71.5013 488.616ZM106.043 491.352C107.211 491.352 108.083 491.096 108.659 490.584C109.251 490.056 109.547 489.384 109.547 488.568V488.4C109.547 487.504 109.259 486.832 108.683 486.384C108.123 485.936 107.387 485.712 106.475 485.712C105.579 485.712 104.851 485.912 104.291 486.312C103.747 486.696 103.299 487.208 102.947 487.848L101.435 486.696C101.643 486.36 101.899 486.032 102.203 485.712C102.507 485.376 102.859 485.08 103.259 484.824C103.675 484.568 104.147 484.36 104.675 484.2C105.219 484.04 105.835 483.96 106.523 483.96C107.243 483.96 107.915 484.056 108.539 484.248C109.163 484.424 109.707 484.696 110.171 485.064C110.635 485.416 110.995 485.856 111.251 486.384C111.523 486.912 111.659 487.512 111.659 488.184C111.659 488.728 111.571 489.216 111.395 489.648C111.235 490.08 111.003 490.456 110.699 490.776C110.411 491.096 110.067 491.368 109.667 491.592C109.267 491.816 108.843 491.984 108.395 492.096V492.192C108.859 492.288 109.307 492.448 109.739 492.672C110.171 492.88 110.555 493.16 110.891 493.512C111.227 493.848 111.491 494.264 111.682 494.76C111.891 495.24 111.995 495.792 111.995 496.416C111.995 497.136 111.851 497.8 111.562 498.408C111.291 499 110.899 499.512 110.387 499.944C109.891 500.36 109.283 500.688 108.563 500.928C107.859 501.168 107.075 501.288 106.211 501.288C105.475 501.288 104.819 501.208 104.243 501.048C103.683 500.888 103.179 500.672 102.73 500.4C102.299 500.128 101.915 499.824 101.579 499.488C101.259 499.152 100.971 498.8 100.715 498.432L102.227 497.28C102.451 497.616 102.683 497.92 102.923 498.192C103.163 498.464 103.435 498.704 103.739 498.912C104.059 499.104 104.419 499.256 104.819 499.368C105.219 499.48 105.683 499.536 106.211 499.536C107.395 499.536 108.299 499.264 108.923 498.72C109.563 498.176 109.883 497.4 109.883 496.392V496.2C109.883 495.208 109.571 494.44 108.947 493.896C108.339 493.352 107.419 493.08 106.187 493.08H104.195V491.352H106.043Z" fill="black"/>
<path d="M770.176 431H768.16V414.248H774.256C775.808 414.248 776.992 414.672 777.808 415.52C778.624 416.368 779.032 417.552 779.032 419.072C779.032 420.432 778.68 421.52 777.976 422.336C777.272 423.152 776.248 423.624 774.904 423.752L779.176 431H776.92L772.84 423.848H770.176V431ZM774.208 422.144C775.056 422.144 775.712 421.936 776.176 421.52C776.656 421.088 776.896 420.48 776.896 419.696V418.448C776.896 417.664 776.656 417.064 776.176 416.648C775.712 416.216 775.056 416 774.208 416H770.176V422.144H774.208ZM787.591 431.288C786.727 431.288 785.943 431.136 785.239 430.832C784.551 430.528 783.959 430.096 783.463 429.536C782.983 428.96 782.615 428.28 782.359 427.496C782.103 426.696 781.975 425.8 781.975 424.808C781.975 423.832 782.103 422.944 782.359 422.144C782.615 421.344 782.983 420.664 783.463 420.104C783.959 419.528 784.551 419.088 785.239 418.784C785.943 418.48 786.727 418.328 787.591 418.328C788.455 418.328 789.231 418.48 789.919 418.784C790.623 419.088 791.215 419.528 791.695 420.104C792.191 420.664 792.567 421.344 792.823 422.144C793.079 422.944 793.207 423.832 793.207 424.808C793.207 425.8 793.079 426.696 792.823 427.496C792.567 428.28 792.191 428.96 791.695 429.536C791.215 430.096 790.623 430.528 789.919 430.832C789.231 431.136 788.455 431.288 787.591 431.288ZM787.591 429.632C788.663 429.632 789.527 429.312 790.183 428.672C790.839 428.032 791.167 427.04 791.167 425.696V423.92C791.167 422.576 790.839 421.584 790.183 420.944C789.527 420.304 788.663 419.984 787.591 419.984C786.519 419.984 785.655 420.304 784.999 420.944C784.343 421.584 784.015 422.576 784.015 423.92V425.696C784.015 427.04 784.343 428.032 784.999 428.672C785.655 429.312 786.519 429.632 787.591 429.632ZM795.501 418.616H797.205L798.621 429.32H798.837L800.949 418.616H803.061L805.173 429.32H805.389L806.805 418.616H808.461L806.565 431H804.069L802.101 420.632H801.909L799.893 431H797.397L795.501 418.616ZM830.043 421.352C831.211 421.352 832.083 421.096 832.659 420.584C833.251 420.056 833.547 419.384 833.547 418.568V418.4C833.547 417.504 833.259 416.832 832.683 416.384C832.123 415.936 831.387 415.712 830.475 415.712C829.579 415.712 828.851 415.912 828.291 416.312C827.747 416.696 827.299 417.208 826.947 417.848L825.435 416.696C825.643 416.36 825.899 416.032 826.203 415.712C826.507 415.376 826.859 415.08 827.259 414.824C827.675 414.568 828.147 414.36 828.675 414.2C829.219 414.04 829.835 413.96 830.523 413.96C831.243 413.96 831.915 414.056 832.539 414.248C833.163 414.424 833.707 414.696 834.171 415.064C834.635 415.416 834.995 415.856 835.251 416.384C835.523 416.912 835.659 417.512 835.659 418.184C835.659 418.728 835.571 419.216 835.395 419.648C835.235 420.08 835.003 420.456 834.699 420.776C834.411 421.096 834.067 421.368 833.667 421.592C833.267 421.816 832.843 421.984 832.395 422.096V422.192C832.859 422.288 833.307 422.448 833.739 422.672C834.171 422.88 834.555 423.16 834.891 423.512C835.227 423.848 835.491 424.264 835.682 424.76C835.891 425.24 835.995 425.792 835.995 426.416C835.995 427.136 835.851 427.8 835.562 428.408C835.291 429 834.899 429.512 834.387 429.944C833.891 430.36 833.283 430.688 832.563 430.928C831.859 431.168 831.075 431.288 830.211 431.288C829.475 431.288 828.819 431.208 828.243 431.048C827.683 430.888 827.179 430.672 826.73 430.4C826.299 430.128 825.915 429.824 825.579 429.488C825.259 429.152 824.971 428.8 824.715 428.432L826.227 427.28C826.451 427.616 826.683 427.92 826.923 428.192C827.163 428.464 827.435 428.704 827.739 428.912C828.059 429.104 828.419 429.256 828.819 429.368C829.219 429.48 829.683 429.536 830.211 429.536C831.395 429.536 832.299 429.264 832.923 428.72C833.563 428.176 833.883 427.4 833.883 426.392V426.2C833.883 425.208 833.571 424.44 832.947 423.896C832.339 423.352 831.419 423.08 830.187 423.08H828.195V421.352H830.043Z" fill="black"/>
<path d="M248.176 501H246.16V484.248H252.256C253.808 484.248 254.992 484.672 255.808 485.52C256.624 486.368 257.032 487.552 257.032 489.072C257.032 490.432 256.68 491.52 255.976 492.336C255.272 493.152 254.248 493.624 252.904 493.752L257.176 501H254.92L250.84 493.848H248.176V501ZM252.208 492.144C253.056 492.144 253.712 491.936 254.176 491.52C254.656 491.088 254.896 490.48 254.896 489.696V488.448C254.896 487.664 254.656 487.064 254.176 486.648C253.712 486.216 253.056 486 252.208 486H248.176V492.144H252.208ZM265.591 501.288C264.727 501.288 263.943 501.136 263.239 500.832C262.551 500.528 261.959 500.096 261.463 499.536C260.983 498.96 260.615 498.28 260.359 497.496C260.103 496.696 259.975 495.8 259.975 494.808C259.975 493.832 260.103 492.944 260.359 492.144C260.615 491.344 260.983 490.664 261.463 490.104C261.959 489.528 262.551 489.088 263.239 488.784C263.943 488.48 264.727 488.328 265.591 488.328C266.455 488.328 267.231 488.48 267.919 488.784C268.623 489.088 269.215 489.528 269.695 490.104C270.191 490.664 270.567 491.344 270.823 492.144C271.079 492.944 271.207 493.832 271.207 494.808C271.207 495.8 271.079 496.696 270.823 497.496C270.567 498.28 270.191 498.96 269.695 499.536C269.215 500.096 268.623 500.528 267.919 500.832C267.231 501.136 266.455 501.288 265.591 501.288ZM265.591 499.632C266.663 499.632 267.527 499.312 268.183 498.672C268.839 498.032 269.167 497.04 269.167 495.696V493.92C269.167 492.576 268.839 491.584 268.183 490.944C267.527 490.304 266.663 489.984 265.591 489.984C264.519 489.984 263.655 490.304 262.999 490.944C262.343 491.584 262.015 492.576 262.015 493.92V495.696C262.015 497.04 262.343 498.032 262.999 498.672C263.655 499.312 264.519 499.632 265.591 499.632ZM273.501 488.616H275.205L276.621 499.32H276.837L278.949 488.616H281.061L283.173 499.32H283.389L284.805 488.616H286.461L284.565 501H282.069L280.101 490.632H279.909L277.893 501H275.397L273.501 488.616ZM314.451 501H303.267V498.936L308.859 493.896C309.675 493.16 310.347 492.408 310.875 491.64C311.403 490.856 311.667 490.032 311.667 489.168V488.88C311.667 487.872 311.403 487.096 310.875 486.552C310.347 485.992 309.563 485.712 308.523 485.712C307.499 485.712 306.707 485.976 306.147 486.504C305.603 487.016 305.195 487.704 304.923 488.568L303.123 487.896C303.283 487.4 303.499 486.92 303.771 486.456C304.059 485.976 304.419 485.552 304.851 485.184C305.283 484.816 305.803 484.52 306.411 484.296C307.035 484.072 307.755 483.96 308.571 483.96C309.403 483.96 310.139 484.08 310.779 484.32C311.435 484.56 311.979 484.896 312.411 485.328C312.859 485.76 313.195 486.272 313.419 486.864C313.659 487.456 313.779 488.104 313.779 488.808C313.779 489.448 313.683 490.048 313.491 490.608C313.315 491.168 313.059 491.704 312.723 492.216C312.403 492.728 312.011 493.232 311.547 493.728C311.099 494.208 310.595 494.688 310.035 495.168L305.355 499.248H314.451V501Z" fill="black"/>
<path d="M2.88 171V154.248H4.896V169.248H12.84V171H2.88ZM22.3586 155.88C21.7986 155.88 21.4066 155.768 21.1826 155.544C20.9586 155.304 20.8466 155.008 20.8466 154.656V154.272C20.8466 153.92 20.9586 153.632 21.1826 153.408C21.4066 153.168 21.7986 153.048 22.3586 153.048C22.9186 153.048 23.3106 153.168 23.5346 153.408C23.7586 153.632 23.8706 153.92 23.8706 154.272V154.656C23.8706 155.008 23.7586 155.304 23.5346 155.544C23.3106 155.768 22.9186 155.88 22.3586 155.88ZM16.9346 169.368H21.3986V160.248H16.9346V158.616H23.3186V169.368H27.4946V171H16.9346V169.368ZM31.1333 171V158.616H33.0533V160.632H33.1493C33.2773 160.328 33.4373 160.04 33.6293 159.768C33.8213 159.48 34.0533 159.232 34.3253 159.024C34.6133 158.816 34.9493 158.648 35.3333 158.52C35.7173 158.392 36.1653 158.328 36.6773 158.328C37.9733 158.328 39.0133 158.744 39.7973 159.576C40.5813 160.392 40.9733 161.552 40.9733 163.056V171H39.0533V163.392C39.0533 162.256 38.8053 161.416 38.3093 160.872C37.8133 160.312 37.0853 160.032 36.1253 160.032C35.7413 160.032 35.3653 160.08 34.9973 160.176C34.6293 160.272 34.3013 160.416 34.0133 160.608C33.7253 160.8 33.4933 161.048 33.3173 161.352C33.1413 161.656 33.0533 162.008 33.0533 162.408V171H31.1333ZM50.5879 171.288C49.6919 171.288 48.8839 171.136 48.1639 170.832C47.4599 170.528 46.8519 170.096 46.3399 169.536C45.8439 168.96 45.4599 168.28 45.1879 167.496C44.9159 166.696 44.7799 165.808 44.7799 164.832C44.7799 163.84 44.9159 162.944 45.1879 162.144C45.4759 161.344 45.8679 160.664 46.3639 160.104C46.8599 159.528 47.4519 159.088 48.1399 158.784C48.8439 158.48 49.6199 158.328 50.4679 158.328C51.2999 158.328 52.0519 158.48 52.7239 158.784C53.4119 159.088 53.9959 159.512 54.4759 160.056C54.9559 160.584 55.3239 161.216 55.5799 161.952C55.8359 162.688 55.9639 163.496 55.9639 164.376V165.288H46.7959V165.864C46.7959 166.408 46.8839 166.912 47.0599 167.376C47.2359 167.84 47.4839 168.24 47.8039 168.576C48.1399 168.912 48.5399 169.176 49.0039 169.368C49.4839 169.544 50.0119 169.632 50.5879 169.632C51.4199 169.632 52.1399 169.44 52.7479 169.056C53.3559 168.672 53.8199 168.144 54.1399 167.472L55.5559 168.432C55.1879 169.264 54.5719 169.952 53.7079 170.496C52.8599 171.024 51.8199 171.288 50.5879 171.288ZM50.4679 159.912C49.9399 159.912 49.4519 160.008 49.0039 160.2C48.5559 160.392 48.1639 160.656 47.8279 160.992C47.5079 161.328 47.2519 161.728 47.0599 162.192C46.8839 162.64 46.7959 163.136 46.7959 163.68V163.848H53.8999V163.584C53.8999 163.04 53.8119 162.544 53.6359 162.096C53.4759 161.648 53.2439 161.264 52.9399 160.944C52.6519 160.608 52.2919 160.352 51.8599 160.176C51.4439 160 50.9799 159.912 50.4679 159.912ZM74.1131 171V154.248H80.2091C81.7611 154.248 82.9451 154.672 83.7611 155.52C84.5771 156.368 84.9851 157.552 84.9851 159.072C84.9851 160.592 84.5771 161.776 83.7611 162.624C82.9451 163.472 81.7611 163.896 80.2091 163.896H76.1291V171H74.1131ZM76.1291 162.144H80.1611C81.0091 162.144 81.6651 161.936 82.1291 161.52C82.6091 161.088 82.8491 160.48 82.8491 159.696V158.448C82.8491 157.664 82.6091 157.064 82.1291 156.648C81.6651 156.216 81.0091 156 80.1611 156H76.1291V162.144ZM94.1438 171C93.1998 171 92.5038 170.736 92.0558 170.208C91.6238 169.68 91.4078 169 91.4078 168.168V160.248H87.2798V158.616H90.3518C90.7678 158.616 91.0558 158.536 91.2158 158.376C91.3918 158.2 91.4798 157.904 91.4798 157.488V154.248H93.3278V158.616H98.9678V160.248H93.3278V169.368H98.9678V171H94.1438ZM102.582 169.368H106.206V160.248H102.582V158.616H108.126V161.736H108.246C108.502 160.76 108.982 160 109.686 159.456C110.406 158.896 111.318 158.616 112.422 158.616H114.15V160.536H111.822C110.718 160.536 109.822 160.856 109.134 161.496C108.462 162.136 108.126 162.976 108.126 164.016V169.368H112.926V171H102.582V169.368ZM122.325 171.216C121.669 171.216 121.205 171.08 120.933 170.808C120.677 170.536 120.549 170.192 120.549 169.776V169.344C120.549 168.928 120.677 168.584 120.933 168.312C121.205 168.04 121.669 167.904 122.325 167.904C122.981 167.904 123.437 168.04 123.693 168.312C123.965 168.584 124.101 168.928 124.101 169.344V169.776C124.101 170.192 123.965 170.536 123.693 170.808C123.437 171.08 122.981 171.216 122.325 171.216ZM150.386 161.352C151.554 161.352 152.426 161.096 153.002 160.584C153.594 160.056 153.89 159.384 153.89 158.568V158.4C153.89 157.504 153.602 156.832 153.026 156.384C152.466 155.936 151.73 155.712 150.818 155.712C149.922 155.712 149.194 155.912 148.634 156.312C148.09 156.696 147.642 157.208 147.29 157.848L145.778 156.696C145.986 156.36 146.242 156.032 146.546 155.712C146.85 155.376 147.202 155.08 147.602 154.824C148.018 154.568 148.49 154.36 149.018 154.2C149.562 154.04 150.178 153.96 150.866 153.96C151.586 153.96 152.258 154.056 152.882 154.248C153.506 154.424 154.05 154.696 154.514 155.064C154.978 155.416 155.338 155.856 155.594 156.384C155.866 156.912 156.002 157.512 156.002 158.184C156.002 158.728 155.914 159.216 155.738 159.648C155.578 160.08 155.346 160.456 155.042 160.776C154.754 161.096 154.41 161.368 154.01 161.592C153.61 161.816 153.186 161.984 152.738 162.096V162.192C153.202 162.288 153.65 162.448 154.082 162.672C154.514 162.88 154.898 163.16 155.234 163.512C155.57 163.848 155.834 164.264 156.026 164.76C156.234 165.24 156.338 165.792 156.338 166.416C156.338 167.136 156.194 167.8 155.906 168.408C155.634 169 155.242 169.512 154.73 169.944C154.234 170.36 153.626 170.688 152.906 170.928C152.202 171.168 151.418 171.288 150.554 171.288C149.818 171.288 149.162 171.208 148.586 171.048C148.026 170.888 147.522 170.672 147.074 170.4C146.642 170.128 146.258 169.824 145.922 169.488C145.602 169.152 145.314 168.8 145.058 168.432L146.57 167.28C146.794 167.616 147.026 167.92 147.266 168.192C147.506 168.464 147.778 168.704 148.082 168.912C148.402 169.104 148.762 169.256 149.162 169.368C149.562 169.48 150.026 169.536 150.554 169.536C151.738 169.536 152.642 169.264 153.266 168.72C153.906 168.176 154.226 167.4 154.226 166.392V166.2C154.226 165.208 153.914 164.44 153.29 163.896C152.682 163.352 151.762 163.08 150.53 163.08H148.538V161.352H150.386Z" fill="black"/>
<path d="M504.88 107V90.248H506.896V105.248H514.84V107H504.88ZM524.359 91.88C523.799 91.88 523.407 91.768 523.183 91.544C522.959 91.304 522.847 91.008 522.847 90.656V90.272C522.847 89.92 522.959 89.632 523.183 89.408C523.407 89.168 523.799 89.048 524.359 89.048C524.919 89.048 525.311 89.168 525.535 89.408C525.759 89.632 525.871 89.92 525.871 90.272V90.656C525.871 91.008 525.759 91.304 525.535 91.544C525.311 91.768 524.919 91.88 524.359 91.88ZM518.935 105.368H523.399V96.248H518.935V94.616H525.319V105.368H529.495V107H518.935V105.368ZM533.133 107V94.616H535.053V96.632H535.149C535.277 96.328 535.437 96.04 535.629 95.768C535.821 95.48 536.053 95.232 536.325 95.024C536.613 94.816 536.949 94.648 537.333 94.52C537.717 94.392 538.165 94.328 538.677 94.328C539.973 94.328 541.013 94.744 541.797 95.576C542.581 96.392 542.973 97.552 542.973 99.056V107H541.053V99.392C541.053 98.256 540.805 97.416 540.309 96.872C539.813 96.312 539.085 96.032 538.125 96.032C537.741 96.032 537.365 96.08 536.997 96.176C536.629 96.272 536.301 96.416 536.013 96.608C535.725 96.8 535.493 97.048 535.317 97.352C535.141 97.656 535.053 98.008 535.053 98.408V107H533.133ZM552.588 107.288C551.692 107.288 550.884 107.136 550.164 106.832C549.46 106.528 548.852 106.096 548.34 105.536C547.844 104.96 547.46 104.28 547.188 103.496C546.916 102.696 546.78 101.808 546.78 100.832C546.78 99.84 546.916 98.944 547.188 98.144C547.476 97.344 547.868 96.664 548.364 96.104C548.86 95.528 549.452 95.088 550.14 94.784C550.844 94.48 551.62 94.328 552.468 94.328C553.3 94.328 554.052 94.48 554.724 94.784C555.412 95.088 555.996 95.512 556.476 96.056C556.956 96.584 557.324 97.216 557.58 97.952C557.836 98.688 557.964 99.496 557.964 100.376V101.288H548.796V101.864C548.796 102.408 548.884 102.912 549.06 103.376C549.236 103.84 549.484 104.24 549.804 104.576C550.14 104.912 550.54 105.176 551.004 105.368C551.484 105.544 552.012 105.632 552.588 105.632C553.42 105.632 554.14 105.44 554.748 105.056C555.356 104.672 555.82 104.144 556.14 103.472L557.556 104.432C557.188 105.264 556.572 105.952 555.708 106.496C554.86 107.024 553.82 107.288 552.588 107.288ZM552.468 95.912C551.94 95.912 551.452 96.008 551.004 96.2C550.556 96.392 550.164 96.656 549.828 96.992C549.508 97.328 549.252 97.728 549.06 98.192C548.884 98.64 548.796 99.136 548.796 99.68V99.848H555.9V99.584C555.9 99.04 555.812 98.544 555.636 98.096C555.476 97.648 555.244 97.264 554.94 96.944C554.652 96.608 554.292 96.352 553.86 96.176C553.444 96 552.98 95.912 552.468 95.912ZM576.113 107V90.248H582.209C583.761 90.248 584.945 90.672 585.761 91.52C586.577 92.368 586.985 93.552 586.985 95.072C586.985 96.592 586.577 97.776 585.761 98.624C584.945 99.472 583.761 99.896 582.209 99.896H578.129V107H576.113ZM578.129 98.144H582.161C583.009 98.144 583.665 97.936 584.129 97.52C584.609 97.088 584.849 96.48 584.849 95.696V94.448C584.849 93.664 584.609 93.064 584.129 92.648C583.665 92.216 583.009 92 582.161 92H578.129V98.144ZM596.144 107C595.2 107 594.504 106.736 594.056 106.208C593.624 105.68 593.408 105 593.408 104.168V96.248H589.28V94.616H592.352C592.768 94.616 593.056 94.536 593.216 94.376C593.392 94.2 593.48 93.904 593.48 93.488V90.248H595.328V94.616H600.968V96.248H595.328V105.368H600.968V107H596.144ZM604.582 105.368H608.206V96.248H604.582V94.616H610.126V97.736H610.246C610.502 96.76 610.982 96 611.686 95.456C612.406 94.896 613.318 94.616 614.422 94.616H616.15V96.536H613.822C612.718 96.536 611.822 96.856 611.134 97.496C610.462 98.136 610.126 98.976 610.126 100.016V105.368H614.926V107H604.582V105.368ZM624.325 107.216C623.669 107.216 623.205 107.08 622.933 106.808C622.677 106.536 622.549 106.192 622.549 105.776V105.344C622.549 104.928 622.677 104.584 622.933 104.312C623.205 104.04 623.669 103.904 624.325 103.904C624.981 103.904 625.437 104.04 625.693 104.312C625.965 104.584 626.101 104.928 626.101 105.344V105.776C626.101 106.192 625.965 106.536 625.693 106.808C625.437 107.08 624.981 107.216 624.325 107.216ZM658.794 107H647.61V104.936L653.202 99.896C654.018 99.16 654.69 98.408 655.218 97.64C655.746 96.856 656.01 96.032 656.01 95.168V94.88C656.01 93.872 655.746 93.096 655.218 92.552C654.69 91.992 653.906 91.712 652.866 91.712C651.842 91.712 651.05 91.976 650.49 92.504C649.946 93.016 649.538 93.704 649.266 94.568L647.466 93.896C647.626 93.4 647.842 92.92 648.114 92.456C648.402 91.976 648.762 91.552 649.194 91.184C649.626 90.816 650.146 90.52 650.754 90.296C651.378 90.072 652.098 89.96 652.914 89.96C653.746 89.96 654.482 90.08 655.122 90.32C655.778 90.56 656.322 90.896 656.754 91.328C657.202 91.76 657.538 92.272 657.762 92.864C658.002 93.456 658.122 94.104 658.122 94.808C658.122 95.448 658.026 96.048 657.834 96.608C657.658 97.168 657.402 97.704 657.066 98.216C656.746 98.728 656.354 99.232 655.89 99.728C655.442 100.208 654.938 100.688 654.378 101.168L649.698 105.248H658.794V107Z" fill="black"/>
</svg>
